PathFileType	4	(X/Y/Z)	 s03c0103.trc
DataRate	CameraRate	NumFrames	NumMarkers	Units	OrigDataRate	OrigDataStartFrame	OrigNumFrames
200	200	4	50	mm	200	251	2000
Frame#	Time	racr			lacr			c7			jug			rlel			rdr			llel			ldr			s2			lic			ric			lasi			rasi			rpsi			lpsi			rgt			lgt			rth1			rth2			rth3			rth4			rlfc			rmfc			rsh1			rsh2			rsh3			rsh4			rlmal			rcal			rtoe			rmt5			rmt1			lth1			lth2			lth4			lth3			llfc			lmfc			lsh1			lsh2			lsh3			lsh4			llmal			lcal			ltoe			lmt1			lmt5			SBIKE			LBIKE			RBIKE			
		X1	Y1	Z1	X2	Y2	Z2	X3	Y3	Z3	X4	Y4	Z4	X5	Y5	Z5	X6	Y6	Z6	X7	Y7	Z7	X8	Y8	Z8	X9	Y9	Z9	X10	Y10	Z10	X11	Y11	Z11	X12	Y12	Z12	X13	Y13	Z13	X14	Y14	Z14	X15	Y15	Z15	X16	Y16	Z16	X17	Y17	Z17	X18	Y18	Z18	X19	Y19	Z19	X20	Y20	Z20	X21	Y21	Z21	X22	Y22	Z22	X23	Y23	Z23	X24	Y24	Z24	X25	Y25	Z25	X26	Y26	Z26	X27	Y27	Z27	X28	Y28	Z28	X29	Y29	Z29	X30	Y30	Z30	X31	Y31	Z31	X32	Y32	Z32	X33	Y33	Z33	X34	Y34	Z34	X35	Y35	Z35	X36	Y36	Z36	X37	Y37	Z37	X38	Y38	Z38	X39	Y39	Z39	X40	Y40	Z40	X41	Y41	Z41	X42	Y42	Z42	X43	Y43	Z43	X44	Y44	Z44	X45	Y45	Z45	X46	Y46	Z46	X47	Y47	Z47	X48	Y48	Z48	X49	Y49	Z49	X50	Y50	Z50	
251	1.2550	475.852088	1402.475224	-54.024762	482.228811	1418.429156	-376.934116	410.155072	1488.520722	-214.717106	444.007649	1322.072983	-215.266159	528.496281	1138.934631	22.594548	748.050861	946.812321	-26.078320	562.788690	1161.976749	-440.444571	801.859204	996.497018	-268.955826	-110.724189	1210.367681	-240.546434	86.960109	1208.998417	-414.599578	60.493375	1229.205242	-47.944325	91.521007	1130.638521	-380.307401	69.834055	1167.990679	-89.092953	-79.122467	1258.508237	-196.314897	-69.549153	1255.228846	-277.764126	-10.243837	1154.356579	-32.008469	7.841331	1102.276553	-434.338080	109.259496	1073.913617	-1.119850	198.031677	1075.774083	4.641938	274.615494	1035.824590	9.550609	207.379309	1108.580889	-10.673090	398.834291	976.279761	-5.337999	415.614288	966.543650	-132.118201	331.050880	823.585100	1.120887	309.736646	740.446431	-22.654347	247.346242	678.166205	-32.418753	336.756067	731.464213	-48.799749	179.129482	566.051602	-65.878231	111.510708	522.676675	-110.391544	421.377270	518.455153	-112.187148	303.327628	500.060710	-42.580176	328.103300	516.654325	-157.177711	73.264167	955.715878	-459.068092	130.521238	890.204741	-462.661482	163.071075	906.825545	-457.949790	148.481539	803.373250	-453.260982	222.159402	695.863230	-436.585610	231.837500	686.169814	-314.659458	146.383492	539.466715	-455.815701	142.459620	456.814044	-437.494244	92.715793	380.504923	-426.821297	172.499425	449.155149	-413.080788	46.718503	262.088761	-402.771732	-18.877101	217.084280	-351.957822	288.979807	193.391474	-357.543863	197.592350	195.305641	-313.465229	167.880784	175.464482	-427.216197	-215.380891	945.346562	-231.077103	-5.831491	84.001056	-435.188779	-11.397236	81.074152	-34.566384	
252	1.2600	475.883670	1402.490066	-54.024630	482.236943	1418.430759	-376.941560	410.125363	1488.528427	-214.727030	444.043272	1322.091482	-215.271658	528.515868	1138.943765	22.588592	748.048903	946.810232	-26.116572	562.796700	1161.972875	-440.445865	801.844792	996.512831	-269.010134	-110.713779	1210.376934	-240.559828	86.959685	1208.987290	-414.599778	60.493099	1229.205089	-47.957720	91.548076	1130.634607	-380.294431	69.865679	1167.966618	-89.164919	-79.132377	1258.515840	-196.325913	-69.549334	1255.231832	-277.791584	-10.230622	1154.337706	-32.035950	7.856311	1102.262106	-434.328580	109.294225	1073.927571	-1.134913	198.053154	1075.778405	4.636448	274.633464	1035.827817	9.569205	207.377248	1108.600010	-10.664640	398.825387	976.280570	-5.328236	415.615065	966.542590	-132.115546	331.038293	823.590236	1.127324	309.724561	740.456027	-22.650121	247.338880	678.188766	-32.423343	336.725791	731.486817	-48.822176	179.119306	566.075588	-65.890433	111.483758	522.691732	-110.396908	421.338472	518.473491	-112.180368	303.287942	500.084354	-42.573035	328.061708	516.670555	-157.172702	73.260507	955.709585	-459.059649	130.530820	890.196212	-462.662350	163.079560	906.821506	-457.943161	148.483277	803.363886	-453.245531	222.145908	695.857267	-436.562476	231.833975	686.153200	-314.657687	146.387074	539.449538	-455.808257	141.925219	455.776384	-435.645345	92.744430	380.491809	-426.817581	172.574069	449.197767	-413.230696	46.738756	262.035055	-402.727189	-18.848039	217.058228	-351.967910	289.023256	193.395201	-357.559947	197.617555	195.271743	-313.447961	167.905232	175.442048	-427.230731	-215.389593	945.334579	-231.075481	-5.837736	84.019725	-435.189868	-11.393656	81.065840	-34.585419	
253	1.2650	475.915070	1402.509544	-54.056082	482.256160	1418.438375	-376.961368	410.140812	1488.550066	-214.742539	444.081614	1322.112399	-215.313210	528.532292	1138.954199	22.585647	748.065926	946.808524	-26.098485	562.796960	1161.954398	-440.448328	801.889551	996.513998	-269.015624	-110.710642	1210.382204	-240.575215	86.992902	1209.008888	-414.627985	60.477564	1229.232498	-47.953239	91.566482	1130.631280	-380.302927	69.839180	1167.989550	-89.134910	-79.125212	1258.502334	-196.344051	-69.528820	1255.230914	-277.818873	-10.246089	1154.398525	-32.013685	7.874775	1102.273103	-434.341163	109.250717	1073.948150	-1.124706	198.040804	1075.790711	4.640975	274.619557	1035.839665	9.572862	207.399184	1108.606994	-10.660478	398.819937	976.287232	-5.313622	415.603248	966.542552	-132.120102	331.052965	823.592620	1.137456	309.719747	740.464888	-22.650370	247.308229	678.202889	-32.416428	336.687857	731.493613	-48.816251	179.077959	566.101874	-65.879877	111.443574	522.724013	-110.384510	421.287036	518.491487	-112.192319	303.242391	500.118075	-42.577325	328.013042	516.680117	-157.180292	73.281996	955.712010	-459.063968	130.529523	890.186934	-462.662579	163.100742	906.807992	-457.926980	148.477930	803.342092	-453.251329	222.166721	695.854985	-436.547680	231.821659	686.157250	-314.641256	146.403857	539.444979	-455.804926	141.941422	455.782232	-435.634579	92.779502	380.470597	-426.821149	172.601657	449.144584	-413.233863	46.751583	261.985324	-402.706189	-18.805573	217.031045	-351.975358	289.072585	193.364252	-357.542979	197.656778	195.266969	-313.456786	167.951527	175.427299	-427.231740	-215.380493	945.332985	-231.066826	-5.839669	84.003156	-435.190166	-11.381944	81.076826	-34.576489	
254	1.2700	475.951460	1402.510721	-54.044864	482.291299	1418.448355	-376.972427	410.138213	1488.557401	-214.753798	444.117229	1322.130919	-215.318710	528.550090	1138.962869	22.577647	748.064595	946.806146	-26.117162	562.801048	1161.960695	-440.491741	801.921417	996.499366	-268.964187	-110.716853	1210.385500	-240.584226	86.997905	1208.982354	-414.636610	60.457755	1229.239919	-47.959406	91.584541	1130.631625	-380.295315	69.839325	1167.991661	-89.170704	-79.127830	1258.518217	-196.366648	-69.531719	1255.241009	-277.839787	-10.232736	1154.418014	-32.020714	7.887076	1102.262864	-434.361343	109.263633	1073.966146	-1.150842	198.043419	1075.807170	4.655853	274.684528	1035.827776	9.384113	207.383853	1108.619862	-10.651221	398.823020	976.295177	-5.311701	415.611372	966.556799	-132.099208	331.036664	823.611874	1.121567	309.707517	740.473310	-22.650253	247.286428	678.215866	-32.408955	336.684169	731.509583	-48.816514	179.019755	566.136241	-65.862424	111.387346	522.760140	-110.364166	421.250224	518.494610	-112.192481	303.193809	500.132963	-42.565114	327.967361	516.701536	-157.177836	73.303347	955.697310	-459.038975	130.544029	890.177207	-462.645473	163.116782	906.800154	-457.925289	148.432279	803.283317	-453.276012	222.170184	695.847736	-436.516748	231.804680	686.155923	-314.609439	146.427509	539.423472	-455.787534	142.521089	456.759892	-437.477462	92.811557	380.447912	-426.823046	172.553735	449.115790	-413.051082	46.788187	261.972647	-402.707396	-18.777268	216.998030	-351.966951	289.205161	193.343682	-357.474830	197.697982	195.266252	-313.487675	167.992288	175.414480	-427.229146	-215.378342	945.327171	-231.033899	-5.831238	84.020492	-435.183180	-11.397447	81.069909	-34.575240	
